<svg viewBox="0 0 701.64 260.9" xmlns="http://www.w3.org/2000/svg">
  <path d="m114.7 144.78a17.23 17.23 0 0 1 -7.74-1.66 12.31 12.31 0 0 1 -5.14-4.66 13.24 13.24 0 0 1 -1.82-7v-7.86a13.2 13.2 0 0 1 1.82-7 12.31 12.31 0 0 1 5.18-4.6 17.09 17.09 0 0 1 7.74-1.66q6.6 0 10.53 3.33a11.92 11.92 0 0 1 4.18 9.07h-9.08a4.6 4.6 0 0 0 -1.66-3.33 6.13 6.13 0 0 0 -4-1.21 5.79 5.79 0 0 0 -4.17 1.4 5.33 5.33 0 0 0 -1.45 4v7.87a5.37 5.37 0 0 0 1.45 4 5.71 5.71 0 0 0 4.17 1.42 6.18 6.18 0 0 0 4-1.18 4.52 4.52 0 0 0 1.66-3.36h9.08a11.94 11.94 0 0 1 -4.18 9.08q-3.97 3.35-10.57 3.35z"/>
  <path d="m153.86 144.78a16.86 16.86 0 0 1 -7.69-1.66 12.19 12.19 0 0 1 -5-4.66 13.41 13.41 0 0 1 -1.79-7v-7.86a13.41 13.41 0 0 1 1.79-7 12.12 12.12 0 0 1 5-4.66 18.69 18.69 0 0 1 15.4 0 12.16 12.16 0 0 1 5 4.66 13.41 13.41 0 0 1 1.79 7v7.87a13.41 13.41 0 0 1 -1.79 7 12.23 12.23 0 0 1 -5 4.66 16.8 16.8 0 0 1 -7.71 1.65zm0-7.87a5.41 5.41 0 0 0 4-1.42 5.5 5.5 0 0 0 1.39-4v-7.89a5.72 5.72 0 0 0 -9.47-4 5.4 5.4 0 0 0 -1.42 4v7.87a4.94 4.94 0 0 0 5.45 5.44z"/>
  <path d="m179 144.17v-33.28h8.77v6.36h2.67l-2.67 2.11a9 9 0 0 1 2.42-6.59 8.74 8.74 0 0 1 6.54-2.48 9.75 9.75 0 0 1 7.77 3.39 13.26 13.26 0 0 1 2.94 9v21.48h-9.08v-20.56a5.56 5.56 0 0 0 -1.36-4 5.71 5.71 0 0 0 -7.56 0 5.56 5.56 0 0 0 -1.37 4v20.57z"/>
  <path d="m231.13 144.78a18.33 18.33 0 0 1 -7.2-1.3 11.39 11.39 0 0 1 -4.81-3.6 8.73 8.73 0 0 1 -1.73-5.39h9.08a2.68 2.68 0 0 0 1.3 2.33 5.87 5.87 0 0 0 3.36.88h2.66a6.55 6.55 0 0 0 3.78-.91 2.91 2.91 0 0 0 1.3-2.54 2.67 2.67 0 0 0 -1.15-2.33 8 8 0 0 0 -3.57-1.12l-3.87-.48q-6.24-.8-9.08-3t-2.84-6.84a9.07 9.07 0 0 1 3.33-7.5q3.33-2.67 9.74-2.66h2.3q6.11 0 9.74 2.66a8.42 8.42 0 0 1 3.63 7.14h-9.1a2.29 2.29 0 0 0 -1.18-2 5.76 5.76 0 0 0 -3.12-.75h-2.3a5.64 5.64 0 0 0 -3.27.75 2.66 2.66 0 0 0 -1 2.27 2.53 2.53 0 0 0 .94 2.12 6.56 6.56 0 0 0 3 1l4.17.54q6.3.8 9.35 3.15t3.06 7a9.3 9.3 0 0 1 -3.51 7.81q-3.51 2.72-10.35 2.72z"/>
  <path d="m275.48 144.17a10 10 0 0 1 -10.89-10.89v-14.22h-8.77v-8.17h8.77v-9.38h9.08v9.38h12.4v8.17h-12.4v14.22a2.41 2.41 0 0 0 2.72 2.73h9.08v8.16z"/>
  <path d="m298 144.17v-33.28h8.47v6.36h2.3l-2.6 3.87q0-5.39 2.48-8.11t7.26-2.72q5.5 0 8.57 3.33t3 9.37v2.73h-9.68v-2.12a5.81 5.81 0 0 0 -1.48-4.24 5.33 5.33 0 0 0 -4-1.51 5.1 5.1 0 0 0 -4 1.51 6.12 6.12 0 0 0 -1.36 4.24v20.57z"/>
  <path d="m350.52 144.78q-6.72 0-10.5-3.63t-3.78-9.93v-20.33h9.07v20.27a6.22 6.22 0 0 0 1.33 4.27 5.77 5.77 0 0 0 7.72 0 6.08 6.08 0 0 0 1.36-4.27v-20.27h9.08v20.33q0 6.36-3.81 10t-10.47 3.56z"/>
  <path d="m395.6 144.17a12.5 12.5 0 0 1 -6.18-1.48 10.57 10.57 0 0 1 -4.14-4.14 12.5 12.5 0 0 1 -1.48-6.18v-24.2h-10.59v-8.17h19.66v32.37a3.44 3.44 0 0 0 3.63 3.63h9.38v8.16z"/>
  <path d="m424.88 144.78a11.23 11.23 0 0 1 -7.95-2.72 9.59 9.59 0 0 1 -2.94-7.39 9.17 9.17 0 0 1 3.48-7.71q3.48-2.7 10-2.69h6.89v-2.48a3.81 3.81 0 0 0 -1.36-3.09 5.48 5.48 0 0 0 -3.66-1.15 6 6 0 0 0 -3.51 1 3.93 3.93 0 0 0 -1.69 2.66h-8.78a11.12 11.12 0 0 1 4.39-8 15.88 15.88 0 0 1 9.89-2.93q6.36 0 10.08 3.11a10.39 10.39 0 0 1 3.72 8.39v22.38h-8.77v-5.44h-1.45l1.51-2.12a7.3 7.3 0 0 1 -2.7 6 11 11 0 0 1 -7.15 2.18zm3.39-6.66a6.65 6.65 0 0 0 4.39-1.42 4.59 4.59 0 0 0 1.72-3.72v-3.57h-6.71a4.69 4.69 0 0 0 -3.33 1.18 4.06 4.06 0 0 0 -1.27 3.12 4 4 0 0 0 1.39 3.23 5.7 5.7 0 0 0 3.81 1.18z"/>
  <path d="m468.51 144.78q-6.72 0-10.5-3.63t-3.78-9.93v-20.33h9.08v20.27a6.17 6.17 0 0 0 1.33 4.27 5.77 5.77 0 0 0 7.72 0 6.13 6.13 0 0 0 1.36-4.27v-20.27h9.07v20.33q0 6.36-3.81 10t-10.47 3.56z"/>
  <path d="m511.48 144.17c-3.39 0-6.06-1-8-2.9a10.79 10.79 0 0 1 -2.91-8v-14.21h-8.77v-8.17h8.77v-9.38h9.08v9.38h12.4v8.17h-12.4v14.22a2.41 2.41 0 0 0 2.72 2.73h9.08v8.16z"/>
  <path d="m547.18 144.78q-6.72 0-10.5-3.63t-3.78-9.93v-20.33h9.1v20.27a6.22 6.22 0 0 0 1.33 4.27 5.77 5.77 0 0 0 7.72 0 6.08 6.08 0 0 0 1.36-4.27v-20.27h9.08v20.33q0 6.36-3.82 10t-10.49 3.56z"/>
  <path d="m585.12 144.78a18.33 18.33 0 0 1 -7.2-1.3 11.42 11.42 0 0 1 -4.82-3.6 8.72 8.72 0 0 1 -1.72-5.39h9.08a2.68 2.68 0 0 0 1.3 2.33 5.87 5.87 0 0 0 3.36.88h2.66a6.55 6.55 0 0 0 3.78-.91 2.91 2.91 0 0 0 1.3-2.54 2.67 2.67 0 0 0 -1.15-2.33 8 8 0 0 0 -3.57-1.12l-3.87-.48q-6.24-.8-9.08-3t-2.84-6.84a9.07 9.07 0 0 1 3.33-7.5q3.33-2.67 9.74-2.66h2.3q6.1 0 9.74 2.66a8.42 8.42 0 0 1 3.63 7.14h-9.09a2.29 2.29 0 0 0 -1.18-2 5.76 5.76 0 0 0 -3.12-.75h-2.3a5.64 5.64 0 0 0 -3.27.75 2.66 2.66 0 0 0 -1 2.27 2.53 2.53 0 0 0 .94 2.12 6.56 6.56 0 0 0 3 1l4.17.54q6.3.8 9.35 3.15t3.06 7a9.3 9.3 0 0 1 -3.51 7.81q-3.51 2.72-10.35 2.72z"/>
  <path d="m374.24 152.7h31.64v8.19h-31.64z"/>
</svg>
