<?xml version="1.0" encoding="utf-8"?>
<!-- Generator: Adobe Illustrator 27.1.1, SVG Export Plug-In . SVG Version: 6.00 Build 0)  -->
<svg version="1.1" id="Layer_1" xmlns="http://www.w3.org/2000/svg" xmlns:xlink="http://www.w3.org/1999/xlink" x="0px" y="0px"
	 viewBox="0 0 425.2 113" style="enable-background:new 0 0 425.2 113;" xml:space="preserve">
<style type="text/css">
	.st0{fill:#999999;}
</style>
<g>
	<g>
		<rect x="53.1" y="69.1" class="st0" width="22.3" height="22.3"/>
	</g>
	<g>
		<polygon class="st0" points="53.1,24.6 53.1,46.9 75.4,46.9 75.4,69.1 97.7,69.1 97.7,46.9 97.7,24.6 		"/>
	</g>
	<g>
		<polygon class="st0" points="131.1,24.6 131.1,46.9 108.8,46.9 108.8,69.1 108.8,91.4 131.1,91.4 131.1,69.1 153.4,69.1 
			153.4,46.9 175.7,46.9 175.7,24.6 		"/>
	</g>
	<g>
		<rect x="153.4" y="69.1" class="st0" width="22.3" height="22.3"/>
	</g>
</g>
<g>
	<path class="st0" d="M191.7,41.2V24.8h6.8c0.7,0,1.4,0.1,1.9,0.4s1.1,0.7,1.5,1.2c0.4,0.5,0.8,1,1,1.7c0.2,0.6,0.4,1.2,0.4,1.9
		c0,0.9-0.2,1.7-0.6,2.5s-0.9,1.4-1.6,1.9c-0.7,0.5-1.5,0.7-2.5,0.7h-5.3v6L191.7,41.2L191.7,41.2z M193.3,33.7h5.2
		c0.6,0,1.2-0.2,1.7-0.5s0.8-0.8,1.1-1.4c0.3-0.6,0.4-1.2,0.4-1.8c0-0.7-0.1-1.3-0.5-1.9c-0.3-0.6-0.7-1-1.2-1.3
		c-0.5-0.3-1.1-0.5-1.6-0.5h-5.1L193.3,33.7L193.3,33.7z"/>
	<path class="st0" d="M209.9,24.8h1.4l6.8,16.3h-1.7l-2-5.1h-7.5l-2,5.1h-1.7L209.9,24.8z M213.8,34.8l-3.2-8.1l-3.2,8.1H213.8z"/>
	<path class="st0" d="M226.4,41.3c-1.3,0-2.4-0.2-3.3-0.7s-1.6-1.1-2.1-1.8c-0.5-0.8-0.9-1.7-1.1-2.6s-0.4-2-0.4-3v-8.2h1.6v8.2
		c0,0.8,0.1,1.7,0.3,2.5c0.2,0.8,0.5,1.5,0.9,2.2c0.4,0.6,0.9,1.2,1.6,1.5s1.5,0.6,2.5,0.6c1,0,1.9-0.2,2.6-0.6s1.2-0.9,1.6-1.5
		s0.7-1.4,0.8-2.2s0.2-1.6,0.2-2.5v-8.2h1.6v8.2c0,1.1-0.1,2.1-0.4,3.1s-0.6,1.9-1.2,2.6s-1.2,1.3-2.1,1.8S227.6,41.3,226.4,41.3z"
		/>
	<path class="st0" d="M237.1,41.2V24.8h1.6v14.9h9.4v1.4H237.1z"/>
	<path class="st0" d="M256.4,41.3c-1.1,0-2.2-0.2-3.1-0.7s-1.7-1.1-2.4-1.9s-1.2-1.7-1.6-2.7c-0.4-1-0.6-2-0.6-3
		c0-1.1,0.2-2.1,0.6-3.1c0.4-1,0.9-1.9,1.6-2.6c0.7-0.8,1.5-1.4,2.4-1.8c0.9-0.5,1.9-0.7,3-0.7c1.1,0,2.2,0.2,3.1,0.7
		c0.9,0.5,1.7,1.1,2.4,1.9c0.7,0.8,1.2,1.7,1.5,2.7s0.5,2,0.5,3c0,1.1-0.2,2.1-0.6,3.1c-0.4,1-0.9,1.9-1.6,2.6
		c-0.7,0.8-1.5,1.4-2.4,1.8C258.5,41.1,257.5,41.3,256.4,41.3z M250.3,33c0,0.9,0.1,1.7,0.4,2.6s0.7,1.5,1.2,2.2
		c0.5,0.6,1.2,1.1,1.9,1.5s1.6,0.6,2.4,0.6c0.9,0,1.8-0.2,2.5-0.6c0.7-0.4,1.4-0.9,1.9-1.6s0.9-1.4,1.2-2.2c0.3-0.8,0.4-1.6,0.4-2.5
		c0-0.9-0.1-1.7-0.4-2.5s-0.7-1.5-1.2-2.2c-0.5-0.6-1.2-1.1-1.9-1.5c-0.7-0.4-1.5-0.5-2.4-0.5c-0.9,0-1.8,0.2-2.5,0.6
		c-0.7,0.4-1.4,0.9-1.9,1.5s-0.9,1.4-1.2,2.2C250.5,31.3,250.3,32.2,250.3,33z"/>
	<path class="st0" d="M287.4,41.2V27.9l-5.9,10.3h-1l-5.9-10.3v13.3H273V24.8h1.7L281,36l6.4-11.2h1.6v16.3H287.4z"/>
	<path class="st0" d="M298.2,24.8h1.4l6.8,16.3h-1.7l-2-5.1h-7.5l-2,5.1h-1.7L298.2,24.8z M302.1,34.8l-3.2-8.1l-3.2,8.1H302.1z"/>
	<path class="st0" d="M308.7,41.2V24.8h6.9c0.7,0,1.4,0.1,1.9,0.4s1.1,0.7,1.5,1.2c0.4,0.5,0.8,1,1,1.7c0.2,0.6,0.4,1.2,0.4,1.9
		c0,0.8-0.1,1.5-0.5,2.2c-0.3,0.7-0.7,1.3-1.3,1.8s-1.2,0.8-1.9,0.9l4,6.3h-1.8l-3.8-6h-4.8v6C310.3,41.2,308.7,41.2,308.7,41.2z
		 M310.3,33.7h5.3c0.6,0,1.2-0.2,1.7-0.5c0.5-0.3,0.8-0.8,1.1-1.4c0.3-0.6,0.4-1.2,0.4-1.8c0-0.7-0.1-1.3-0.5-1.8s-0.7-1-1.2-1.4
		c-0.5-0.3-1-0.5-1.7-0.5h-5.2L310.3,33.7L310.3,33.7z"/>
	<path class="st0" d="M335.1,26.3h-5.8v14.9h-1.6V26.3h-5.8v-1.4h13.2V26.3z"/>
	<path class="st0" d="M337.5,41.2V24.8h1.6v16.3H337.5z"/>
	<path class="st0" d="M344.9,27.8v13.4h-1.6V24.8h1.3l10.7,13.6V24.9h1.6v16.3h-1.5L344.9,27.8z"/>
	<path class="st0" d="M370.5,27.9c-0.2-0.3-0.5-0.5-0.8-0.7s-0.6-0.4-1-0.5c-0.4-0.1-0.8-0.3-1.2-0.4s-0.9-0.1-1.4-0.1
		c-1.4,0-2.5,0.3-3.1,0.8c-0.7,0.5-1,1.3-1,2.2c0,0.6,0.2,1.1,0.5,1.5s0.8,0.7,1.5,0.9s1.5,0.5,2.6,0.7c1.2,0.2,2.2,0.5,3,0.9
		c0.8,0.3,1.5,0.8,2,1.4s0.7,1.3,0.7,2.3c0,0.8-0.1,1.4-0.4,2s-0.7,1-1.2,1.4c-0.5,0.4-1.1,0.6-1.9,0.8c-0.7,0.2-1.5,0.3-2.4,0.3
		c-0.8,0-1.6-0.1-2.4-0.3s-1.5-0.4-2.2-0.8s-1.3-0.8-1.9-1.3l0.8-1.3c0.3,0.3,0.6,0.6,1,0.9c0.4,0.3,0.9,0.5,1.4,0.7s1,0.4,1.6,0.5
		s1.2,0.2,1.8,0.2c1.3,0,2.3-0.2,3-0.7c0.7-0.5,1.1-1.2,1.1-2.1c0-0.7-0.2-1.2-0.5-1.6s-0.9-0.7-1.7-1s-1.6-0.5-2.7-0.8
		c-1.1-0.3-2.1-0.5-2.9-0.9c-0.8-0.3-1.4-0.8-1.8-1.3s-0.6-1.2-0.6-2.1c0-1,0.2-1.9,0.8-2.6c0.5-0.7,1.2-1.2,2.1-1.6
		c0.9-0.4,1.9-0.5,3-0.5c0.7,0,1.4,0.1,2,0.2s1.2,0.4,1.7,0.6c0.5,0.3,1,0.6,1.5,1L370.5,27.9z"/>
	<path class="st0" d="M196.7,49.8h1.4l6.8,16.3h-1.7l-2-5.1h-7.5l-2,5.1h-1.7L196.7,49.8z M200.6,59.8l-3.2-8.1l-3.2,8.1H200.6z"/>
	<path class="st0" d="M207.8,66.2V49.8h6.9c0.7,0,1.4,0.2,1.9,0.4c0.6,0.3,1.1,0.7,1.5,1.2c0.4,0.5,0.8,1,1,1.7
		c0.2,0.6,0.4,1.2,0.4,1.8c0,0.8-0.1,1.5-0.4,2.2s-0.7,1.3-1.3,1.8s-1.2,0.8-1.9,0.9l4,6.3h-1.8l-3.8-6h-4.8v6
		C209.4,66.2,207.8,66.2,207.8,66.2z M209.4,58.7h5.3c0.6,0,1.2-0.2,1.7-0.5s0.8-0.8,1.1-1.4c0.3-0.6,0.4-1.2,0.4-1.8
		c0-0.7-0.1-1.3-0.4-1.8s-0.7-1-1.2-1.4c-0.5-0.3-1.1-0.5-1.7-0.5h-5.2L209.4,58.7L209.4,58.7z"/>
	<path class="st0" d="M230.1,66.3c-1.1,0-2.2-0.2-3.1-0.7c-0.9-0.5-1.7-1.1-2.4-1.9c-0.7-0.8-1.2-1.7-1.6-2.7c-0.4-1-0.6-2-0.6-3
		c0-1.1,0.2-2.1,0.6-3.1c0.4-1,0.9-1.9,1.6-2.7c0.7-0.8,1.5-1.4,2.4-1.8c0.9-0.5,1.9-0.7,3-0.7c1.1,0,2.2,0.2,3.1,0.7
		c0.9,0.5,1.7,1.1,2.4,1.9c0.7,0.8,1.2,1.7,1.6,2.7c0.4,1,0.6,2,0.6,3c0,1.1-0.2,2.1-0.6,3.1c-0.4,1-0.9,1.9-1.6,2.6
		s-1.5,1.4-2.4,1.8C232.1,66.1,231.1,66.3,230.1,66.3z M230.1,64.8c0.9,0,1.8-0.2,2.5-0.6c0.7-0.4,1.4-0.9,1.9-1.6s0.9-1.4,1.2-2.2
		c0.3-0.8,0.4-1.6,0.4-2.5c0-0.9-0.1-1.7-0.4-2.6c-0.3-0.8-0.7-1.5-1.2-2.2c-0.5-0.6-1.2-1.1-1.9-1.5s-1.6-0.6-2.4-0.6
		c-0.9,0-1.8,0.2-2.5,0.6c-0.7,0.4-1.4,0.9-1.9,1.6s-0.9,1.4-1.2,2.2c-0.3,0.8-0.4,1.6-0.4,2.5c0,0.9,0.1,1.7,0.4,2.6
		s0.7,1.5,1.2,2.2c0.5,0.6,1.2,1.1,1.9,1.5C228.3,64.6,229.2,64.8,230.1,64.8z M231.5,61.1h1.6l4.2,5h-1.6L231.5,61.1z"/>
	<path class="st0" d="M248,66.3c-1.3,0-2.4-0.2-3.3-0.7s-1.6-1.1-2.1-1.9c-0.5-0.8-0.9-1.7-1.1-2.6s-0.4-2-0.4-3v-8.2h1.6v8.2
		c0,0.8,0.1,1.7,0.3,2.5c0.2,0.8,0.5,1.5,0.9,2.2c0.4,0.6,0.9,1.2,1.6,1.5s1.5,0.6,2.5,0.6c1,0,1.9-0.2,2.6-0.6
		c0.7-0.4,1.2-0.9,1.6-1.6s0.7-1.4,0.8-2.2s0.2-1.6,0.2-2.5v-8.2h1.6v8.2c0,1.1-0.1,2.1-0.4,3.1s-0.6,1.9-1.2,2.6
		c-0.5,0.8-1.2,1.4-2.1,1.8S249.2,66.3,248,66.3z"/>
	<path class="st0" d="M259.3,66.2V49.8h1.6v16.3H259.3z"/>
	<path class="st0" d="M277.2,51.3h-5.8v14.9h-1.6V51.3H264v-1.4h13.2V51.3z"/>
	<path class="st0" d="M291.2,64.7v1.4h-11V49.8H291v1.4h-9.1v5.9h8v1.4h-8v6.2H291.2z"/>
	<path class="st0" d="M293.5,57.9c0-1,0.2-2,0.5-2.9s0.9-1.8,1.5-2.6c0.7-0.8,1.5-1.4,2.4-1.9s2.1-0.7,3.3-0.7c1.5,0,2.7,0.3,3.7,1
		c1,0.7,1.8,1.5,2.3,2.6l-1.3,0.8c-0.4-0.7-0.8-1.3-1.3-1.7c-0.5-0.4-1.1-0.7-1.7-0.9c-0.6-0.2-1.2-0.3-1.8-0.3
		c-1,0-1.9,0.2-2.6,0.6s-1.4,0.9-1.9,1.6c-0.5,0.7-0.9,1.4-1.2,2.2c-0.3,0.8-0.4,1.6-0.4,2.5c0,0.9,0.1,1.8,0.5,2.6s0.7,1.6,1.3,2.2
		c0.5,0.6,1.2,1.1,1.9,1.5c0.7,0.4,1.5,0.6,2.4,0.6c0.6,0,1.2-0.1,1.9-0.3c0.6-0.2,1.2-0.5,1.8-1s1-1,1.4-1.7l1.3,0.7
		c-0.3,0.8-0.9,1.5-1.6,2.1c-0.7,0.6-1.5,1-2.4,1.3s-1.7,0.4-2.5,0.4c-1.1,0-2.1-0.2-3.1-0.7s-1.7-1.1-2.4-1.9
		c-0.7-0.8-1.2-1.7-1.6-2.7C293.7,59.9,293.5,58.9,293.5,57.9z"/>
	<path class="st0" d="M322.5,51.3h-5.8v14.9h-1.6V51.3h-5.8v-1.4h13.2V51.3z"/>
	<path class="st0" d="M332.2,66.3c-1.3,0-2.4-0.2-3.3-0.7s-1.6-1.1-2.1-1.9c-0.5-0.8-0.9-1.7-1.1-2.6c-0.2-1-0.4-2-0.4-3v-8.2h1.6
		v8.2c0,0.8,0.1,1.7,0.3,2.5c0.2,0.8,0.5,1.5,0.9,2.2c0.4,0.6,0.9,1.2,1.6,1.5s1.5,0.6,2.5,0.6c1,0,1.9-0.2,2.6-0.6
		c0.7-0.4,1.2-0.9,1.6-1.6c0.4-0.6,0.7-1.4,0.8-2.2s0.2-1.6,0.2-2.5v-8.2h1.6v8.2c0,1.1-0.1,2.1-0.4,3.1s-0.6,1.9-1.2,2.6
		c-0.5,0.8-1.2,1.4-2.1,1.8S333.5,66.3,332.2,66.3z"/>
	<path class="st0" d="M343.6,66.2V49.8h6.9c0.7,0,1.4,0.2,1.9,0.4c0.6,0.3,1.1,0.7,1.5,1.2c0.4,0.5,0.8,1,1,1.7
		c0.2,0.6,0.4,1.2,0.4,1.8c0,0.8-0.1,1.5-0.5,2.2c-0.3,0.7-0.7,1.3-1.3,1.8s-1.2,0.8-1.9,0.9l4,6.3h-1.8l-3.8-6h-4.8v6
		C345.2,66.2,343.6,66.2,343.6,66.2z M345.2,58.7h5.3c0.6,0,1.2-0.2,1.7-0.5c0.5-0.3,0.8-0.8,1.1-1.4c0.3-0.6,0.4-1.2,0.4-1.8
		c0-0.7-0.1-1.3-0.5-1.8s-0.7-1-1.2-1.4c-0.5-0.3-1-0.5-1.7-0.5h-5.2L345.2,58.7L345.2,58.7z"/>
	<path class="st0" d="M364.2,49.8h1.4l6.8,16.3h-1.7l-2-5.1h-7.5l-2,5.1h-1.7L364.2,49.8z M368.1,59.8l-3.2-8.1l-3.2,8.1H368.1z"/>
	<path class="st0" d="M202.6,89.7v1.4h-11V74.8h10.8v1.4h-9.1v5.9h8v1.4h-8v6.2H202.6z"/>
	<path class="st0" d="M287.8,91.2V74.8h5.5c1.7,0,3.2,0.4,4.3,1.1c1.2,0.7,2,1.7,2.6,2.9c0.6,1.2,0.9,2.6,0.9,4.1
		c0,1.7-0.3,3.1-1,4.3c-0.6,1.2-1.5,2.2-2.7,2.8s-2.6,1-4.1,1L287.8,91.2L287.8,91.2z M299.5,83c0-1.3-0.2-2.5-0.7-3.5
		s-1.2-1.8-2.1-2.4c-0.9-0.6-2-0.9-3.4-0.9h-3.9v13.5h3.9c1.4,0,2.5-0.3,3.4-0.9c0.9-0.6,1.6-1.4,2.1-2.4
		C299.3,85.4,299.5,84.2,299.5,83z"/>
	<path class="st0" d="M315.8,89.7v1.4h-11V74.8h10.8v1.4h-9.1v5.9h8v1.4h-8v6.2H315.8z"/>
	<path class="st0" d="M329,77.9c-0.2-0.3-0.5-0.5-0.8-0.7s-0.6-0.4-1-0.5c-0.4-0.2-0.8-0.3-1.2-0.4c-0.4-0.1-0.9-0.1-1.4-0.1
		c-1.4,0-2.5,0.3-3.1,0.8c-0.7,0.5-1,1.3-1,2.2c0,0.6,0.2,1.2,0.5,1.5c0.3,0.4,0.8,0.7,1.5,0.9s1.5,0.5,2.6,0.7
		c1.2,0.2,2.2,0.5,3,0.9c0.8,0.3,1.5,0.8,2,1.4s0.7,1.3,0.7,2.3c0,0.8-0.1,1.4-0.4,1.9c-0.3,0.6-0.7,1-1.2,1.4
		c-0.5,0.4-1.1,0.6-1.9,0.8c-0.7,0.2-1.5,0.3-2.4,0.3c-0.8,0-1.6-0.1-2.4-0.3s-1.5-0.4-2.2-0.8s-1.3-0.8-1.9-1.3l0.8-1.3
		c0.3,0.3,0.6,0.6,1,0.9c0.4,0.3,0.9,0.5,1.4,0.7s1,0.4,1.6,0.5s1.2,0.2,1.8,0.2c1.3,0,2.3-0.2,3-0.7c0.7-0.5,1.1-1.2,1.1-2.1
		c0-0.7-0.2-1.2-0.5-1.6s-0.9-0.7-1.7-1s-1.6-0.5-2.7-0.8c-1.1-0.3-2.1-0.6-2.9-0.9c-0.8-0.3-1.4-0.8-1.8-1.3s-0.6-1.2-0.6-2.1
		c0-1,0.2-1.9,0.8-2.6s1.2-1.2,2.1-1.6c0.9-0.4,1.9-0.5,3-0.5c0.7,0,1.4,0.1,2,0.2s1.2,0.4,1.7,0.6c0.5,0.3,1,0.6,1.5,1L329,77.9z"
		/>
	<path class="st0" d="M334,91.2V74.8h1.6v16.3H334z"/>
	<path class="st0" d="M346.9,91.3c-1.1,0-2.1-0.2-3-0.7c-0.9-0.5-1.8-1.1-2.4-1.9s-1.2-1.7-1.6-2.7c-0.4-1-0.6-2-0.6-3
		c0-1.1,0.2-2.2,0.6-3.1c0.4-1,0.9-1.9,1.6-2.6c0.7-0.8,1.5-1.4,2.4-1.8c0.9-0.4,1.9-0.7,3-0.7c1.6,0,2.9,0.3,3.9,1
		c1,0.7,1.8,1.5,2.3,2.6l-1.2,0.8c-0.5-1-1.2-1.8-2.1-2.2s-1.9-0.7-2.9-0.7c-0.9,0-1.7,0.2-2.5,0.6c-0.7,0.4-1.4,0.9-1.9,1.5
		s-0.9,1.4-1.2,2.2c-0.3,0.8-0.4,1.7-0.4,2.5c0,0.9,0.1,1.8,0.5,2.6s0.7,1.6,1.3,2.2s1.2,1.1,2,1.5c0.7,0.4,1.5,0.5,2.4,0.5
		c1,0,1.9-0.2,2.8-0.8c0.9-0.5,1.7-1.3,2.5-2.3v1.7C350.9,90.3,349,91.3,346.9,91.3z M352.2,84.4h-3.6v-1.2h5v8h-1.4V84.4z"/>
	<path class="st0" d="M359.1,77.8v13.4h-1.6V74.8h1.3l10.7,13.6V74.9h1.6v16.3h-1.5L359.1,77.8z"/>
</g>
</svg>
