<?xml version="1.0" encoding="utf-8"?>
<!-- Generator: Adobe Illustrator 27.1.1, SVG Export Plug-In . SVG Version: 6.00 Build 0)  -->
<svg version="1.1" id="Layer_1" xmlns="http://www.w3.org/2000/svg" xmlns:xlink="http://www.w3.org/1999/xlink" x="0px" y="0px"
	 viewBox="0 0 325.9 113" style="enable-background:new 0 0 325.9 113;" xml:space="preserve">
<style type="text/css">
	.st0{fill:#999999;}
</style>
<g>
	<g>
		<rect x="3" y="68.1" class="st0" width="22.3" height="22.3"/>
	</g>
	<g>
		<polygon class="st0" points="3,23.6 3,45.9 25.3,45.9 25.3,68.1 47.6,68.1 47.6,45.9 47.6,23.6 		"/>
	</g>
	<g>
		<polygon class="st0" points="81,23.6 81,45.9 58.7,45.9 58.7,68.1 58.7,90.4 81,90.4 81,68.1 103.3,68.1 103.3,45.9 125.6,45.9 
			125.6,23.6 		"/>
	</g>
	<g>
		<rect x="103.3" y="68.1" class="st0" width="22.3" height="22.3"/>
	</g>
</g>
<g>
	<path class="st0" d="M141.6,40.2V23.8h6.8c0.7,0,1.4,0.1,1.9,0.4s1.1,0.7,1.5,1.2s0.8,1,1,1.7c0.2,0.6,0.4,1.2,0.4,1.9
		c0,0.9-0.2,1.7-0.6,2.5c-0.4,0.8-0.9,1.4-1.6,1.9c-0.7,0.5-1.5,0.7-2.5,0.7h-5.3v6L141.6,40.2L141.6,40.2z M143.2,32.7h5.2
		c0.6,0,1.2-0.2,1.7-0.5s0.8-0.8,1.1-1.4c0.3-0.6,0.4-1.2,0.4-1.8c0-0.7-0.1-1.3-0.5-1.9c-0.3-0.6-0.7-1-1.2-1.3s-1.1-0.5-1.6-0.5
		h-5.1L143.2,32.7L143.2,32.7z"/>
	<path class="st0" d="M159.8,23.8h1.4l6.8,16.3h-1.7l-2-5.1h-7.5l-2,5.1h-1.7L159.8,23.8z M163.7,33.8l-3.2-8.1l-3.2,8.1H163.7z"/>
	<path class="st0" d="M176.3,40.3c-1.3,0-2.4-0.2-3.3-0.7c-0.9-0.5-1.6-1.1-2.1-1.8c-0.5-0.8-0.9-1.7-1.1-2.6s-0.4-2-0.4-3V24h1.6
		v8.2c0,0.8,0.1,1.7,0.3,2.5c0.2,0.8,0.5,1.5,0.9,2.2c0.4,0.6,0.9,1.2,1.6,1.5s1.5,0.6,2.5,0.6s1.9-0.2,2.6-0.6s1.2-0.9,1.6-1.5
		c0.4-0.6,0.7-1.4,0.8-2.2s0.2-1.6,0.2-2.5V24h1.6v8.2c0,1.1-0.1,2.1-0.4,3.1s-0.6,1.9-1.2,2.6c-0.6,0.7-1.2,1.3-2.1,1.8
		C178.5,40.2,177.5,40.3,176.3,40.3z"/>
	<path class="st0" d="M187,40.2V23.8h1.6v14.9h9.4v1.4h-11V40.2z"/>
	<path class="st0" d="M206.3,40.3c-1.1,0-2.2-0.2-3.1-0.7c-0.9-0.5-1.7-1.1-2.4-1.9c-0.7-0.8-1.2-1.7-1.6-2.7c-0.4-1-0.6-2-0.6-3
		c0-1.1,0.2-2.1,0.6-3.1s0.9-1.9,1.6-2.6c0.7-0.8,1.5-1.4,2.4-1.8c0.9-0.5,1.9-0.7,3-0.7s2.2,0.2,3.1,0.7s1.7,1.1,2.4,1.9
		c0.7,0.8,1.2,1.7,1.5,2.7s0.5,2,0.5,3c0,1.1-0.2,2.1-0.6,3.1s-0.9,1.9-1.6,2.6c-0.7,0.8-1.5,1.4-2.4,1.8
		C208.4,40.1,207.4,40.3,206.3,40.3z M200.2,32c0,0.9,0.1,1.7,0.4,2.6s0.7,1.5,1.2,2.2c0.5,0.6,1.2,1.1,1.9,1.5
		c0.7,0.4,1.6,0.6,2.4,0.6c0.9,0,1.8-0.2,2.5-0.6c0.7-0.4,1.4-0.9,1.9-1.6s0.9-1.4,1.2-2.2c0.3-0.8,0.4-1.6,0.4-2.5
		s-0.1-1.7-0.4-2.5s-0.7-1.5-1.2-2.2c-0.5-0.6-1.2-1.1-1.9-1.5c-0.7-0.4-1.5-0.5-2.4-0.5s-1.8,0.2-2.5,0.6c-0.7,0.4-1.4,0.9-1.9,1.5
		s-0.9,1.4-1.2,2.2C200.4,30.3,200.2,31.2,200.2,32z"/>
	<path class="st0" d="M237.3,40.2V26.9l-5.9,10.3h-1l-5.9-10.3v13.3h-1.6V23.8h1.7l6.3,11.2l6.4-11.2h1.6v16.3h-1.6V40.2z"/>
	<path class="st0" d="M248.1,23.8h1.4l6.8,16.3h-1.7l-2-5.1h-7.5l-2,5.1h-1.7L248.1,23.8z M252,33.8l-3.2-8.1l-3.2,8.1H252z"/>
	<path class="st0" d="M258.6,40.2V23.8h6.9c0.7,0,1.4,0.1,1.9,0.4s1.1,0.7,1.5,1.2s0.8,1,1,1.7c0.2,0.6,0.4,1.2,0.4,1.9
		c0,0.8-0.1,1.5-0.5,2.2c-0.3,0.7-0.7,1.3-1.3,1.8s-1.2,0.8-1.9,0.9l4,6.3h-1.8l-3.8-6h-4.8v6C260.2,40.2,258.6,40.2,258.6,40.2z
		 M260.2,32.7h5.3c0.6,0,1.2-0.2,1.7-0.5s0.8-0.8,1.1-1.4c0.3-0.6,0.4-1.2,0.4-1.8c0-0.7-0.1-1.3-0.5-1.8s-0.7-1-1.2-1.4
		c-0.5-0.3-1-0.5-1.7-0.5h-5.2L260.2,32.7L260.2,32.7z"/>
	<path class="st0" d="M285,25.3h-5.8v14.9h-1.6V25.3h-5.8v-1.4H285L285,25.3L285,25.3z"/>
	<path class="st0" d="M287.4,40.2V23.8h1.6v16.3h-1.6V40.2z"/>
	<path class="st0" d="M294.8,26.8v13.4h-1.6V23.8h1.3l10.7,13.6V23.9h1.6v16.3h-1.5L294.8,26.8z"/>
	<path class="st0" d="M320.4,26.9c-0.2-0.3-0.5-0.5-0.8-0.7s-0.6-0.4-1-0.5s-0.8-0.3-1.2-0.4s-0.9-0.1-1.4-0.1
		c-1.4,0-2.5,0.3-3.1,0.8c-0.7,0.5-1,1.3-1,2.2c0,0.6,0.2,1.1,0.5,1.5s0.8,0.7,1.5,0.9s1.5,0.5,2.6,0.7c1.2,0.2,2.2,0.5,3,0.9
		c0.8,0.3,1.5,0.8,2,1.4s0.7,1.3,0.7,2.3c0,0.8-0.1,1.4-0.4,2s-0.7,1-1.2,1.4s-1.1,0.6-1.9,0.8c-0.7,0.2-1.5,0.3-2.4,0.3
		c-0.8,0-1.6-0.1-2.4-0.3s-1.5-0.4-2.2-0.8s-1.3-0.8-1.9-1.3l0.8-1.3c0.3,0.3,0.6,0.6,1,0.9c0.4,0.3,0.9,0.5,1.4,0.7s1,0.4,1.6,0.5
		s1.2,0.2,1.8,0.2c1.3,0,2.3-0.2,3-0.7s1.1-1.2,1.1-2.1c0-0.7-0.2-1.2-0.5-1.6s-0.9-0.7-1.7-1s-1.6-0.5-2.7-0.8s-2.1-0.5-2.9-0.9
		c-0.8-0.3-1.4-0.8-1.8-1.3s-0.6-1.2-0.6-2.1c0-1,0.2-1.9,0.8-2.6c0.5-0.7,1.2-1.2,2.1-1.6s1.9-0.5,3-0.5c0.7,0,1.4,0.1,2,0.2
		s1.2,0.4,1.7,0.6c0.5,0.3,1,0.6,1.5,1L320.4,26.9z"/>
	<path class="st0" d="M146.6,48.8h1.4l6.8,16.3h-1.7l-2-5.1h-7.5l-2,5.1h-1.7L146.6,48.8z M150.5,58.8l-3.2-8.1l-3.2,8.1
		C144.1,58.8,150.5,58.8,150.5,58.8z"/>
	<path class="st0" d="M157.7,65.2V48.8h6.9c0.7,0,1.4,0.2,1.9,0.4c0.6,0.3,1.1,0.7,1.5,1.2s0.8,1,1,1.7c0.2,0.6,0.4,1.2,0.4,1.8
		c0,0.8-0.1,1.5-0.4,2.2s-0.7,1.3-1.3,1.8s-1.2,0.8-1.9,0.9l4,6.3H168l-3.8-6h-4.8v6C159.3,65.2,157.7,65.2,157.7,65.2z M159.3,57.7
		h5.3c0.6,0,1.2-0.2,1.7-0.5s0.8-0.8,1.1-1.4c0.3-0.6,0.4-1.2,0.4-1.8c0-0.7-0.1-1.3-0.4-1.8s-0.7-1-1.2-1.4
		c-0.5-0.3-1.1-0.5-1.7-0.5h-5.2L159.3,57.7L159.3,57.7z"/>
	<path class="st0" d="M180,65.3c-1.1,0-2.2-0.2-3.1-0.7c-0.9-0.5-1.7-1.1-2.4-1.9c-0.7-0.8-1.2-1.7-1.6-2.7c-0.4-1-0.6-2-0.6-3
		c0-1.1,0.2-2.1,0.6-3.1s0.9-1.9,1.6-2.7s1.5-1.4,2.4-1.8c0.9-0.5,1.9-0.7,3-0.7s2.2,0.2,3.1,0.7s1.7,1.1,2.4,1.9
		c0.7,0.8,1.2,1.7,1.6,2.7s0.6,2,0.6,3c0,1.1-0.2,2.1-0.6,3.1c-0.4,1-0.9,1.9-1.6,2.6s-1.5,1.4-2.4,1.8C182,65.1,181,65.3,180,65.3z
		 M180,63.8c0.9,0,1.8-0.2,2.5-0.6c0.7-0.4,1.4-0.9,1.9-1.6s0.9-1.4,1.2-2.2c0.3-0.8,0.4-1.6,0.4-2.5s-0.1-1.7-0.4-2.6
		c-0.3-0.8-0.7-1.5-1.2-2.2c-0.5-0.6-1.2-1.1-1.9-1.5c-0.7-0.4-1.6-0.6-2.4-0.6c-0.9,0-1.8,0.2-2.5,0.6c-0.7,0.4-1.4,0.9-1.9,1.6
		s-0.9,1.4-1.2,2.2c-0.3,0.8-0.4,1.6-0.4,2.5s0.1,1.7,0.4,2.6s0.7,1.5,1.2,2.2c0.5,0.6,1.2,1.1,1.9,1.5
		C178.2,63.6,179.1,63.8,180,63.8z M181.4,60.1h1.6l4.2,5h-1.6L181.4,60.1z"/>
	<path class="st0" d="M197.9,65.3c-1.3,0-2.4-0.2-3.3-0.7c-0.9-0.5-1.6-1.1-2.1-1.9c-0.5-0.8-0.9-1.7-1.1-2.6s-0.4-2-0.4-3v-8.2h1.6
		v8.2c0,0.8,0.1,1.7,0.3,2.5c0.2,0.8,0.5,1.5,0.9,2.2c0.4,0.6,0.9,1.2,1.6,1.5s1.5,0.6,2.5,0.6s1.9-0.2,2.6-0.6s1.2-0.9,1.6-1.6
		c0.4-0.7,0.7-1.4,0.8-2.2s0.2-1.6,0.2-2.5v-8.2h1.6V57c0,1.1-0.1,2.1-0.4,3.1s-0.6,1.9-1.2,2.6c-0.5,0.8-1.2,1.4-2.1,1.8
		C200.1,64.9,199.1,65.3,197.9,65.3z"/>
	<path class="st0" d="M209.2,65.2V48.8h1.6v16.3L209.2,65.2L209.2,65.2z"/>
	<path class="st0" d="M227.1,50.3h-5.8v14.9h-1.6V50.3h-5.8v-1.4h13.2V50.3z"/>
	<path class="st0" d="M241.1,63.7v1.4h-11V48.8h10.8v1.4h-9.1v5.9h8v1.4h-8v6.2C231.8,63.7,241.1,63.7,241.1,63.7z"/>
	<path class="st0" d="M243.4,56.9c0-1,0.2-2,0.5-2.9s0.9-1.8,1.5-2.6c0.7-0.8,1.5-1.4,2.4-1.9s2.1-0.7,3.3-0.7c1.5,0,2.7,0.3,3.7,1
		s1.8,1.5,2.3,2.6l-1.3,0.8c-0.4-0.7-0.8-1.3-1.3-1.7s-1.1-0.7-1.7-0.9s-1.2-0.3-1.8-0.3c-1,0-1.9,0.2-2.6,0.6s-1.4,0.9-1.9,1.6
		c-0.5,0.7-0.9,1.4-1.2,2.2c-0.3,0.8-0.4,1.6-0.4,2.5s0.1,1.8,0.5,2.6s0.7,1.6,1.3,2.2c0.5,0.6,1.2,1.1,1.9,1.5
		c0.7,0.4,1.5,0.6,2.4,0.6c0.6,0,1.2-0.1,1.9-0.3c0.6-0.2,1.2-0.5,1.8-1s1-1,1.4-1.7l1.3,0.7c-0.3,0.8-0.9,1.5-1.6,2.1
		c-0.7,0.6-1.5,1-2.4,1.3s-1.7,0.4-2.5,0.4c-1.1,0-2.1-0.2-3.1-0.7s-1.7-1.1-2.4-1.9c-0.7-0.8-1.2-1.7-1.6-2.7
		C243.6,58.9,243.4,57.9,243.4,56.9z"/>
	<path class="st0" d="M272.4,50.3h-5.8v14.9H265V50.3h-5.8v-1.4h13.2L272.4,50.3L272.4,50.3z"/>
	<path class="st0" d="M282.1,65.3c-1.3,0-2.4-0.2-3.3-0.7s-1.6-1.1-2.1-1.9c-0.5-0.8-0.9-1.7-1.1-2.6c-0.2-1-0.4-2-0.4-3v-8.2h1.6
		v8.2c0,0.8,0.1,1.7,0.3,2.5c0.2,0.8,0.5,1.5,0.9,2.2c0.4,0.6,0.9,1.2,1.6,1.5s1.5,0.6,2.5,0.6s1.9-0.2,2.6-0.6s1.2-0.9,1.6-1.6
		c0.4-0.6,0.7-1.4,0.8-2.2s0.2-1.6,0.2-2.5v-8.2h1.6V57c0,1.1-0.1,2.1-0.4,3.1s-0.6,1.9-1.2,2.6c-0.5,0.8-1.2,1.4-2.1,1.8
		S283.4,65.3,282.1,65.3z"/>
	<path class="st0" d="M293.5,65.2V48.8h6.9c0.7,0,1.4,0.2,1.9,0.4c0.6,0.3,1.1,0.7,1.5,1.2s0.8,1,1,1.7c0.2,0.6,0.4,1.2,0.4,1.8
		c0,0.8-0.1,1.5-0.5,2.2c-0.3,0.7-0.7,1.3-1.3,1.8s-1.2,0.8-1.9,0.9l4,6.3h-1.8l-3.8-6h-4.8v6C295.1,65.2,293.5,65.2,293.5,65.2z
		 M295.1,57.7h5.3c0.6,0,1.2-0.2,1.7-0.5s0.8-0.8,1.1-1.4c0.3-0.6,0.4-1.2,0.4-1.8c0-0.7-0.1-1.3-0.5-1.8s-0.7-1-1.2-1.4
		c-0.5-0.3-1-0.5-1.7-0.5H295L295.1,57.7L295.1,57.7z"/>
	<path class="st0" d="M314.1,48.8h1.4l6.8,16.3h-1.7l-2-5.1h-7.5l-2,5.1h-1.7L314.1,48.8z M318,58.8l-3.2-8.1l-3.2,8.1
		C311.6,58.8,318,58.8,318,58.8z"/>
	<path class="st0" d="M152.5,88.7v1.4h-11V73.8h10.8v1.4h-9.1v5.9h8v1.4h-8v6.2C143.2,88.7,152.5,88.7,152.5,88.7z"/>
	<path class="st0" d="M237.7,90.2V73.8h5.5c1.7,0,3.2,0.4,4.3,1.1c1.2,0.7,2,1.7,2.6,2.9c0.6,1.2,0.9,2.6,0.9,4.1
		c0,1.7-0.3,3.1-1,4.3c-0.6,1.2-1.5,2.2-2.7,2.8s-2.6,1-4.1,1L237.7,90.2L237.7,90.2z M249.4,82c0-1.3-0.2-2.5-0.7-3.5
		s-1.2-1.8-2.1-2.4s-2-0.9-3.4-0.9h-3.9v13.5h3.9c1.4,0,2.5-0.3,3.4-0.9s1.6-1.4,2.1-2.4C249.2,84.4,249.4,83.2,249.4,82z"/>
	<path class="st0" d="M265.7,88.7v1.4h-11V73.8h10.8v1.4h-9.1v5.9h8v1.4h-8v6.2C256.4,88.7,265.7,88.7,265.7,88.7z"/>
	<path class="st0" d="M278.9,76.9c-0.2-0.3-0.5-0.5-0.8-0.7s-0.6-0.4-1-0.5c-0.4-0.2-0.8-0.3-1.2-0.4c-0.4-0.1-0.9-0.1-1.4-0.1
		c-1.4,0-2.5,0.3-3.1,0.8c-0.7,0.5-1,1.3-1,2.2c0,0.6,0.2,1.2,0.5,1.5c0.3,0.4,0.8,0.7,1.5,0.9s1.5,0.5,2.6,0.7
		c1.2,0.2,2.2,0.5,3,0.9c0.8,0.3,1.5,0.8,2,1.4s0.7,1.3,0.7,2.3c0,0.8-0.1,1.4-0.4,1.9c-0.3,0.6-0.7,1-1.2,1.4s-1.1,0.6-1.9,0.8
		c-0.7,0.2-1.5,0.3-2.4,0.3c-0.8,0-1.6-0.1-2.4-0.3s-1.5-0.4-2.2-0.8s-1.3-0.8-1.9-1.3l0.8-1.3c0.3,0.3,0.6,0.6,1,0.9
		s0.9,0.5,1.4,0.7s1,0.4,1.6,0.5s1.2,0.2,1.8,0.2c1.3,0,2.3-0.2,3-0.7s1.1-1.2,1.1-2.1c0-0.7-0.2-1.2-0.5-1.6s-0.9-0.7-1.7-1
		s-1.6-0.5-2.7-0.8s-2.1-0.6-2.9-0.9s-1.4-0.8-1.8-1.3s-0.6-1.2-0.6-2.1c0-1,0.2-1.9,0.8-2.6s1.2-1.2,2.1-1.6s1.9-0.5,3-0.5
		c0.7,0,1.4,0.1,2,0.2s1.2,0.4,1.7,0.6c0.5,0.3,1,0.6,1.5,1L278.9,76.9z"/>
	<path class="st0" d="M283.9,90.2V73.8h1.6v16.3L283.9,90.2L283.9,90.2z"/>
	<path class="st0" d="M296.8,90.3c-1.1,0-2.1-0.2-3-0.7s-1.8-1.1-2.4-1.9s-1.2-1.7-1.6-2.7s-0.6-2-0.6-3c0-1.1,0.2-2.2,0.6-3.1
		c0.4-1,0.9-1.9,1.6-2.6c0.7-0.8,1.5-1.4,2.4-1.8s1.9-0.7,3-0.7c1.6,0,2.9,0.3,3.9,1s1.8,1.5,2.3,2.6l-1.2,0.8
		c-0.5-1-1.2-1.8-2.1-2.2s-1.9-0.7-2.9-0.7c-0.9,0-1.7,0.2-2.5,0.6c-0.7,0.4-1.4,0.9-1.9,1.5s-0.9,1.4-1.2,2.2
		c-0.3,0.8-0.4,1.7-0.4,2.5c0,0.9,0.1,1.8,0.5,2.6s0.7,1.6,1.3,2.2s1.2,1.1,2,1.5c0.7,0.4,1.5,0.5,2.4,0.5c1,0,1.9-0.2,2.8-0.8
		c0.9-0.5,1.7-1.3,2.5-2.3v1.7C300.8,89.3,298.9,90.3,296.8,90.3z M302.1,83.4h-3.6v-1.2h5v8h-1.4V83.4z"/>
	<path class="st0" d="M309,76.8v13.4h-1.6V73.8h1.3l10.7,13.6V73.9h1.6v16.3h-1.5L309,76.8z"/>
</g>
</svg>
