<?xml version="1.0" encoding="utf-8"?>
<!-- Generator: Adobe Illustrator 26.0.1, SVG Export Plug-In . SVG Version: 6.00 Build 0)  -->
<svg version="1.1" id="Layer_1" xmlns="http://www.w3.org/2000/svg" xmlns:xlink="http://www.w3.org/1999/xlink" x="0px" y="0px"
	 viewBox="0 0 1417.32 425.2" style="enable-background:new 0 0 1417.32 425.2;" xml:space="preserve">
<style type="text/css">
	.st0{clip-path:url(#SVGID_00000086692807716780319640000006426632458078345647_);fill:#999999;}
	.st1{fill:#999999;}
	.st2{clip-path:url(#SVGID_00000129892078446547864020000008563140272973842349_);fill:#999999;}
	.st3{clip-path:url(#SVGID_00000006695963508079438010000001939616474608056461_);fill:#999999;}
	.st4{clip-path:url(#SVGID_00000003085436188429958280000016417865395757844913_);fill:#999999;}
	.st5{clip-path:url(#SVGID_00000139265926255394335260000005345098196173817277_);fill:#999999;}
	.st6{clip-path:url(#SVGID_00000139265926255394335260000005345098196173817277_);}
	.st7{clip-path:url(#SVGID_00000088125538174268417450000013494398821792172167_);}
</style>
<g>
	<defs>
		<rect id="SVGID_1_" width="1417.32" height="425.2"/>
	</defs>
	<clipPath id="SVGID_00000158008543745249033230000014962890672309089681_">
		<use xlink:href="#SVGID_1_"  style="overflow:visible;"/>
	</clipPath>
	<path style="clip-path:url(#SVGID_00000158008543745249033230000014962890672309089681_);fill:#999999;" d="M62.66,164.37h25.52
		c16.11,0,23.97-9.59,23.97-23c0-19.01-10.17-24.57-24.94-24.57H62.66V164.37z M36.95,95.31h54.3c32.03,0,47.76,19.55,47.76,46.05
		c0,27.03-18.99,44.49-46.04,44.49H62.66v46.03H36.95V95.31z"/>
</g>
<path class="st1" d="M189.85,120.26h-0.38l-18.81,62.53h37.99L189.85,120.26z M174.7,95.31h29.92l45.64,136.57h-26.84l-7.87-26.46
	h-51.79l-7.87,26.46h-26.85L174.7,95.31z"/>
<g>
	<defs>
		<rect id="SVGID_00000103965762673424738010000010643198810440746174_" width="1417.32" height="425.2"/>
	</defs>
	<clipPath id="SVGID_00000078041047205195346880000014497765816075537075_">
		<use xlink:href="#SVGID_00000103965762673424738010000010643198810440746174_"  style="overflow:visible;"/>
	</clipPath>
	<path style="clip-path:url(#SVGID_00000078041047205195346880000014497765816075537075_);fill:#999999;" d="M366.15,189.89
		c0,27.81-22.06,45.47-55.06,45.47c-33,0-55.04-17.66-55.04-45.47V95.31h25.7v87.87c0,16.67,7.1,27.24,29.35,27.24
		c22.25,0,29.35-10.56,29.35-27.24V95.31h25.71V189.89z"/>
</g>
<polygon class="st1" points="383.03,95.31 408.73,95.31 408.73,208.11 464.17,208.11 464.17,231.89 383.03,231.89 "/>
<g>
	<defs>
		<rect id="SVGID_00000183968281007141730270000017353590725943752579_" width="1417.32" height="425.2"/>
	</defs>
	<clipPath id="SVGID_00000029027441826285290890000013276899927839762562_">
		<use xlink:href="#SVGID_00000183968281007141730270000017353590725943752579_"  style="overflow:visible;"/>
	</clipPath>
	<path style="clip-path:url(#SVGID_00000029027441826285290890000013276899927839762562_);fill:#999999;" d="M497.34,163.61
		c0,23.79,11.33,47.94,38.57,47.94c27.22,0,38.55-24.16,38.55-47.94c0-23.81-11.33-47.96-38.55-47.96
		C508.67,115.65,497.34,139.8,497.34,163.61 M601.33,163.61c0,38.54-24.55,71.75-65.41,71.75c-40.86,0-65.42-33.2-65.42-71.75
		c0-38.59,24.56-71.75,65.42-71.75C576.77,91.86,601.33,125.02,601.33,163.61"/>
</g>
<path class="st1" d="M788.99,120.26h-0.38l-18.81,62.53h37.98L788.99,120.26z M773.83,95.31h29.93l45.66,136.57h-26.87l-7.86-26.46
	H762.9l-7.87,26.46h-26.84L773.83,95.31z"/>
<g>
	<defs>
		<rect id="SVGID_00000181082629807388462970000010873220104390359224_" width="1417.32" height="425.2"/>
	</defs>
	<clipPath id="SVGID_00000142862068302460805300000009490087938551130246_">
		<use xlink:href="#SVGID_00000181082629807388462970000010873220104390359224_"  style="overflow:visible;"/>
	</clipPath>
	<path style="clip-path:url(#SVGID_00000142862068302460805300000009490087938551130246_);fill:#999999;" d="M890.08,159.01h28
		c13.05,0,22.45-7.68,22.45-20.53c0-12.48-8.45-20.53-26.29-20.53h-24.16V159.01z M864.37,95.31h56.97
		c28.96,0,46.04,17.27,46.04,41.25c0,30.69-20.52,37.81-27.05,40.27l30.49,55.05h-29.73l-26.46-50.24h-24.55v50.24h-25.71V95.31z"/>
</g>
<polygon class="st1" points="1020.33,119.1 982.93,119.1 982.93,95.31 1083.44,95.31 1083.44,119.1 1046.02,119.1 1046.02,231.89 
	1020.33,231.89 "/>
<rect x="1099.73" y="95.31" class="st1" width="25.7" height="136.57"/>
<polygon class="st1" points="1141.55,95.31 1165.15,95.31 1222.49,192.58 1222.87,192.58 1222.87,95.31 1246.28,95.31 
	1246.28,231.89 1222.7,231.89 1165.34,134.64 1164.94,134.64 1164.94,231.89 1141.55,231.89 "/>
<g>
	<defs>
		<rect id="SVGID_00000006705484992765702880000009778931120357379479_" width="1417.32" height="425.2"/>
	</defs>
	<clipPath id="SVGID_00000075884978142692332130000015821940433093389706_">
		<use xlink:href="#SVGID_00000006705484992765702880000009778931120357379479_"  style="overflow:visible;"/>
	</clipPath>
	<path style="clip-path:url(#SVGID_00000075884978142692332130000015821940433093389706_);fill:#999999;" d="M1284.26,190.82
		c9.6,14.23,24.56,20.73,41.26,20.73c12.47,0,28.96-4.2,28.96-17.45c0-10.76-9.98-13.82-28.21-18.04l-15.15-3.45
		c-21.87-4.97-41.05-13.02-41.05-38.17c0-28.77,27.42-42.58,52.94-42.58c23.39,0,42.79,8.63,56.96,27.43l-21.29,16.1
		c-6.5-12.46-19.18-19.75-35.85-19.75c-14.79,0-25.91,5.56-25.91,15.17c0,11.31,12.84,14,28.2,17.45l16.68,3.63
		c20.33,4.42,39.52,12.67,39.52,38.56c0,33.38-31.46,44.9-59.85,44.9c-22.64,0-46.02-9.79-59.08-28.78L1284.26,190.82z"/>
	<path style="clip-path:url(#SVGID_00000075884978142692332130000015821940433093389706_);fill:#999999;" d="M578.79,108.95"/>
	<path style="clip-path:url(#SVGID_00000075884978142692332130000015821940433093389706_);fill:#999999;" d="M592.73,131.75"/>
	<path style="clip-path:url(#SVGID_00000075884978142692332130000015821940433093389706_);fill:#999999;" d="M597.87,153.3"/>
	<path style="clip-path:url(#SVGID_00000075884978142692332130000015821940433093389706_);fill:#999999;" d="M586.67,230.29v1.6
		h24.56v-36.63C606.17,209.57,597.71,221.57,586.67,230.29"/>
	<path style="clip-path:url(#SVGID_00000075884978142692332130000015821940433093389706_);fill:#999999;" d="M694.12,95.31h-19.09
		l-12.45,52.95l-12.47,52.93h-0.19h-0.2l-12.48-52.93l-12.46-52.95h-11.24h-2.33h-8.92h-15.64v1.61
		c11.05,8.71,19.51,20.71,24.56,35.04c0,0,1.06,2.87,2.15,6.61l6.4,25.04l17.48,68.28h12.08h12.09l13.43-56.97l13.43-56.97h0.2h0.19
		v56.97v56.97h12.27h12.28v-68.28v-68.3H694.12z"/>
	<g style="clip-path:url(#SVGID_00000075884978142692332130000015821940433093389706_);">
		<path class="st1" d="M46.22,321.96l-4.48,12.1h-4.37l13.97-37.32h4.37l13.97,37.32h-4.37l-4.48-12.1H46.22z M53.52,301.49
			l-5.97,16.74h12L53.52,301.49z"/>
		<path class="st1" d="M86,296.75h9.49c7.62,0,11.62,3.84,11.62,10.34c0,4.42-2.19,8.48-6.5,9.86l9.28,17.11h-4.8l-8.42-16.21h-6.34
			v16.21H86V296.75z M95.49,314.07c4.37,0,7.09-2.03,7.09-6.93c0-3.95-2.08-6.56-7.36-6.56h-4.9v13.49H95.49z"/>
		<path class="st1" d="M143.42,296.05c10.88,0,19.03,8.48,19.03,19.35c0,4.96-1.71,9.38-4.53,12.69l3.95,3.89l-2.83,2.83l-4-3.89
			c-3.15,2.45-7.25,3.84-11.68,3.84c-10.82,0-18.98-8.26-18.98-19.35C124.39,304.42,132.6,296.05,143.42,296.05z M143.42,330.71
			c3.2,0,6.29-0.96,8.58-2.72l-4.16-4l2.77-2.88l4.16,4c2.08-2.51,3.2-5.86,3.2-9.7c0-8.74-6.29-15.3-14.55-15.3
			s-14.55,6.56-14.55,15.3C128.87,324.26,135.16,330.71,143.42,330.71z"/>
		<path class="st1" d="M179.95,320.68v-23.94h4.32v23.88c0,6.18,3.31,10.13,9.6,10.13s9.65-3.95,9.65-10.18v-23.83h4.27v23.88
			c0,8.42-5.06,14.13-13.92,14.13C184.91,334.76,179.95,329.16,179.95,320.68z"/>
		<path class="st1" d="M227.4,296.75h4.32v37.32h-4.32V296.75z"/>
		<path class="st1" d="M258.54,300.69h-10.08v-3.95h24.42v3.95h-10.02v33.38h-4.32V300.69z"/>
		<path class="st1" d="M290.21,296.75h17.7v3.95h-13.38v12.42h11.68v3.89h-11.68v13.17h13.97v3.89h-18.29V296.75z"/>
		<path class="st1" d="M355.74,330.49c-1.44,1.28-5.76,4.27-12.05,4.27c-10.93,0-18.93-8.32-18.93-19.35
			c0-10.98,8.26-19.35,18.82-19.35c5.6,0,9.6,2.29,11.57,3.89l-1.39,3.84c-1.44-1.17-5.12-3.68-10.08-3.68
			c-8.26,0-14.45,6.61-14.45,15.3s5.92,15.3,14.55,15.3c5.65,0,9.33-2.93,10.61-4L355.74,330.49z"/>
		<path class="st1" d="M380.27,300.69h-10.08v-3.95h24.42v3.95h-10.02v33.38h-4.32V300.69z"/>
		<path class="st1" d="M411.73,320.68v-23.94h4.32v23.88c0,6.18,3.31,10.13,9.6,10.13s9.65-3.95,9.65-10.18v-23.83h4.27v23.88
			c0,8.42-5.06,14.13-13.92,14.13C416.69,334.76,411.73,329.16,411.73,320.68z"/>
		<path class="st1" d="M459.18,296.75h9.49c7.62,0,11.62,3.84,11.62,10.34c0,4.42-2.19,8.48-6.5,9.86l9.28,17.11h-4.8l-8.42-16.21
			h-6.34v16.21h-4.32V296.75z M468.67,314.07c4.37,0,7.09-2.03,7.09-6.93c0-3.95-2.08-6.56-7.36-6.56h-4.9v13.49H468.67z"/>
		<path class="st1" d="M505.04,321.96l-4.48,12.1h-4.37l13.97-37.32h4.37l13.97,37.32h-4.37l-4.48-12.1H505.04z M512.34,301.49
			l-5.97,16.74h12L512.34,301.49z"/>
	</g>
</g>
<g>
	<path class="st1" d="M600.53,330.18c-2.69,2.69-6.94,4.67-12.21,4.67c-9.1,0-14.54-5.51-14.54-12.39c0-5.27,3.17-8.92,7.36-11.31
		c-2.33-2.39-4.55-5.15-4.55-9.28c0-5.39,4.01-10.47,11.43-10.47c7.3,0,11.67,4.31,11.67,10.53c0,5.21-3.65,8.74-9.4,11.97
		l9.93,9.58c1.68-3.05,1.98-5.39,1.98-9.4h4.55c0,4.85-0.54,8.68-3.11,12.75l4.37,4.37l-3.41,3.29L600.53,330.18z M597.35,326.88
		l-13.11-12.63c-3.05,1.32-5.75,4.01-5.75,7.96c0,5.27,4.49,8.32,9.81,8.32C592.09,330.53,595.44,328.86,597.35,326.88z
		 M587.24,311.21c4.37-2.21,7.96-5.27,7.96-9.16c0-3.83-2.81-6.64-7.12-6.64c-4.13,0-7,2.81-7,6.64
		C581.08,305.82,584.07,308.51,587.24,311.21z"/>
</g>
<g>
	<defs>
		<rect id="SVGID_00000130645976913398274030000009030912174487713188_" width="1417.32" height="425.2"/>
	</defs>
	<clipPath id="SVGID_00000074435739278877405330000017554169466902517130_">
		<use xlink:href="#SVGID_00000130645976913398274030000009030912174487713188_"  style="overflow:visible;"/>
	</clipPath>
	<g style="clip-path:url(#SVGID_00000074435739278877405330000017554169466902517130_);">
		<path class="st1" d="M653.05,296.75h7.68c12.74,0,19.99,6.98,19.99,18.66c0,12.37-7.52,18.66-19.99,18.66h-7.68V296.75z
			 M661.58,330.23c8.96,0,14.71-5.06,14.71-14.82c0-9.33-5.76-14.77-14.71-14.77h-4.21v29.59H661.58z"/>
		<path class="st1" d="M698.42,296.75h17.7v3.95h-13.38v12.42h11.68v3.89h-11.68v13.17h13.97v3.89h-18.29V296.75z"/>
		<path class="st1" d="M736.39,324.95c1.01,2.88,3.25,5.81,8.16,5.81c3.95,0,6.77-2.29,6.77-6.18c0-9.33-17.49-6.93-17.49-18.98
			c0-5.33,4.05-9.54,10.66-9.54c6.67,0,9.65,4.64,10.56,7.14l-3.62,1.49c-0.85-1.87-2.88-4.69-6.98-4.69s-6.29,2.5-6.29,5.6
			c0,8.53,17.54,6.77,17.54,18.71c0,5.87-4.32,10.45-11.3,10.45c-7.25,0-10.5-4.64-11.68-8.21L736.39,324.95z"/>
		<path class="st1" d="M773.5,296.75h4.32v37.32h-4.32V296.75z"/>
		<path class="st1" d="M828.15,301.49l-2.77,2.88c-1.71-1.65-5.01-4.26-10.88-4.26c-8.58,0-14.45,6.61-14.45,15.35
			c0,9.01,6.08,15.3,14.39,15.3c6.24,0,9.76-2.72,10.93-3.89v-7.84h-8.32v-3.79h12.48v13.49c-4.05,4.1-8.9,6.02-15.25,6.02
			c-10.61,0-18.77-7.94-18.77-19.3c0-10.93,7.94-19.41,18.87-19.41C821.81,296.05,826.23,299.52,828.15,301.49z"/>
		<path class="st1" d="M848.25,296.75h4.32l20.58,30.5v-30.5h4.26v37.32h-4.26l-20.58-30.39v30.39h-4.32V296.75z"/>
	</g>
</g>
</svg>
